<svg width="24" height="24" viewBox="0 0 24 24" fill="none" xmlns="http://www.w3.org/2000/svg">
  <path d="M8 1V3M8 3V5M8 3H13.5M16 1V5M17 3H21C22.1046 3 23 3.89543 23 5V21C23 22.1046 22.1046 23 21 23H3C1.89543 23 1 22.1046 1 21V5C1 3.89543 1.89543 3 3 3H5.5M8 16V12H12M8 16H4V20H8M8 16H12M8 16V20M12 12H16M12 12V16M16 12V16M16 12H20V16M16 16H12M16 16H20M16 16V20M12 16V20M8 20H12M12 20H16M20 16V20H16M5 9H6M9 9H10" stroke="#CFD0EC" stroke-width="2" stroke-linecap="round" stroke-linejoin="round"/>
</svg>
