<svg width="24" height="24" viewBox="0 0 24 24" fill="none" xmlns="http://www.w3.org/2000/svg">
  <g clip-path="url(#clip0_433_7023)">
    <path d="M7.19916 21.8971C5.45749 21.0522 3.96961 19.7628 2.88579 18.1589C1.80197 16.555 1.16059 14.6935 1.02643 12.7624M22.5273 15.1899C21.7356 17.8027 20.0006 20.0276 17.6596 21.4323C15.3187 22.837 12.539 23.3209 9.86103 22.79M12 4C13.7373 4 15.4274 4.56556 16.8149 5.6112C18.2023 6.65684 19.2117 8.12571 19.6903 9.79581C20.169 11.4659 20.091 13.2464 19.4681 14.8683C18.8452 16.4901 17.7113 17.8651 16.2377 18.7854C14.7642 19.7057 13.0311 20.1213 11.3004 19.9694C9.56971 19.8174 7.93552 19.1062 6.64484 17.9433C5.35415 16.7803 4.47713 15.2288 4.14633 13.5232C3.81554 11.8177 4.04894 10.0508 4.81128 8.48965M12 7C12.8629 7 13.711 7.22331 14.4621 7.6482C15.2131 8.07309 15.8413 8.68511 16.2858 9.42472C16.7302 10.1643 16.9756 11.0064 16.9983 11.869C17.0209 12.7315 16.8199 13.5853 16.4148 14.3472C16.0097 15.1091 15.4144 15.7532 14.6867 16.2168C13.959 16.6805 13.1236 16.9479 12.262 16.9931C11.4003 17.0383 10.5415 16.8598 9.7693 16.4748C8.99706 16.0899 8.33758 15.5116 7.85501 14.7963M1.24617 9.68577C1.40241 8.95977 1.63176 8.25145 1.93073 7.57166M3.55181 4.95525C3.70143 4.77583 3.85672 4.60122 4.01746 4.43168M6.33739 2.56946C8.04623 1.54339 10.0017 1.00091 11.995 1C13.9882 0.999093 15.9442 1.53979 17.654 2.5643C19.3637 3.58882 20.763 5.05865 21.7022 6.81672C22.6414 8.57478 23.0853 10.555 22.9864 12.5458" stroke="#686CB3" stroke-width="2" stroke-linecap="round" stroke-linejoin="round"/>
  </g>
  <defs>
    <clipPath id="clip0_433_7023">
      <rect width="24" height="24" fill="white"/>
    </clipPath>
  </defs>
</svg>
