<svg width="94" height="84" viewBox="0 0 94 84" fill="none" xmlns="http://www.w3.org/2000/svg">
  <g filter="url(#filter0_d_4602_109)">
    <rect x="12" y="8" width="70" height="60" fill="#00A799"/>
  </g>
  <path d="M38.2538 37.9645C38.2092 38.9778 38.4399 39.9846 38.9219 40.878C39.4039 41.7716 40.1194 42.5188 40.9931 43.0399C41.8669 43.5611 42.866 43.8365 43.8844 43.8365H48.8584V55.0868H43.8844H43.8735C40.8303 55.0848 37.8438 54.261 35.23 52.702C32.6131 51.1411 30.4672 48.9012 29.0205 46.2194C27.5737 43.5376 26.8804 40.5141 27.0144 37.4698C27.1438 34.5289 28.0407 31.6751 29.6131 29.1907L39.1277 35.1942C38.5985 36.0252 38.2971 36.9805 38.2538 37.9645Z" fill="url(#paint0_linear_4602_109)"/>
  <path d="M44.1244 32.5736H23.3232V21.3234H44.1244C47.1346 21.3234 50.0888 22.1509 52.6723 23.7182C55.2558 25.2856 57.3721 27.5343 58.7951 30.2254C60.2182 32.9165 60.8945 35.9488 60.7516 38.9993C60.6159 41.8965 59.7461 44.7064 58.2299 47.1593L48.8049 41.2285L48.8494 41.1579C49.3452 40.3464 49.6293 39.4198 49.6741 38.4653C49.7216 37.4499 49.4966 36.4402 49.0225 35.5437C48.5483 34.6471 47.8427 33.8969 46.9801 33.3736C46.1175 32.8503 45.1306 32.5736 44.1244 32.5736Z" fill="white"/>
  <defs>
    <filter id="filter0_d_4602_109" x="0" y="0" width="94" height="84" filterUnits="userSpaceOnUse" color-interpolation-filters="sRGB">
      <feFlood flood-opacity="0" result="BackgroundImageFix"/>
      <feColorMatrix in="SourceAlpha" type="matrix" values="0 0 0 0 0 0 0 0 0 0 0 0 0 0 0 0 0 0 127 0" result="hardAlpha"/>
      <feOffset dy="4"/>
      <feGaussianBlur stdDeviation="6"/>
      <feColorMatrix type="matrix" values="0 0 0 0 0 0 0 0 0 0 0 0 0 0 0 0 0 0 0.08 0"/>
      <feBlend mode="normal" in2="BackgroundImageFix" result="effect1_dropShadow_4602_109"/>
      <feBlend mode="normal" in="SourceGraphic" in2="effect1_dropShadow_4602_109" result="shape"/>
    </filter>
    <linearGradient id="paint0_linear_4602_109" x1="32.9445" y1="29.7266" x2="39.4008" y2="48.4042" gradientUnits="userSpaceOnUse">
      <stop stop-color="white" stop-opacity="0.35"/>
      <stop offset="1" stop-color="white"/>
    </linearGradient>
  </defs>
</svg>
