<svg width="24" height="24" viewBox="0 0 24 24" fill="none" xmlns="http://www.w3.org/2000/svg">
  <path d="M9.90772 12.1873C10.7099 12.6796 11.66 12.8732 12.5909 12.7342C13.5218 12.5952 14.3738 12.1323 14.9971 11.4271C15.6204 10.7219 15.9751 9.81945 15.9987 8.87854C16.0224 7.93763 15.7135 7.01852 15.1263 6.28289C14.5392 5.54726 13.7115 5.04223 12.7888 4.85663C11.866 4.67104 10.9074 4.81676 10.0815 5.26818C9.25563 5.7196 8.61538 6.4478 8.27339 7.32468C7.9314 8.20155 7.90957 9.17094 8.21175 10.0623M18.6696 12.7802C19.412 11.5431 19.7956 10.1239 19.7777 8.68132C19.7597 7.23871 19.3409 5.82951 18.568 4.61127C17.7951 3.39304 16.6986 2.41376 15.4011 1.78294C14.3384 1.26623 13.175 0.999978 12 1C10.8251 0.999978 9.66183 1.26619 8.59906 1.7829C7.30156 2.41373 6.20507 3.393 5.43219 4.61124C4.6593 5.82948 4.24047 7.23867 4.22253 8.68129C4.20458 10.1239 4.58822 11.5431 5.33055 12.7802L12 22.7781L18.6696 12.7802Z" stroke="#686CB3" stroke-width="2" stroke-linecap="round" stroke-linejoin="round"/>
</svg>
