<svg width="24" height="24" viewBox="0 0 24 24" fill="none" xmlns="http://www.w3.org/2000/svg">
  <path d="M18 4H20C20.5523 4 21 4.44772 21 5V22C21 22.5523 20.5523 23 20 23H4C3.44772 23 3 22.5523 3 22V5C3 4.44771 3.44772 4 4 4H4.5M7 13H8M11 13H14M7 10H8M11 10L17 10M7 16H8M11 16L17 16M7 19H8M11 19H15M13.7948 2.11762C13.6293 1.78097 13.3725 1.49766 13.0536 1.30003C12.7348 1.10241 12.3668 0.998449 11.9916 1.00002C11.6165 1.00159 11.2494 1.10862 10.9322 1.3089C10.615 1.50919 10.3605 1.79464 10.1979 2.13265M7.40481 6H16.5952C17.5932 6 17.9755 4.69852 17.1359 4.15882L15.5804 3.15882C15.4191 3.05513 15.2314 3 15.0396 3H8.96037C8.76862 3 8.58091 3.05513 8.41961 3.15882L6.86405 4.15882C6.02452 4.69852 6.40676 6 7.40481 6Z" stroke="#686CB3" stroke-width="2" stroke-linecap="round"/>
</svg>
