<svg width="22" height="22" viewBox="0 0 18 18" fill="none" xmlns="http://www.w3.org/2000/svg">
<g clip-path="url(#clip0_12294_10589)">
<path d="M17 1.00001L1.00001 17M16.1625 5.43654C16.9098 6.93858 17.166 8.63753 16.8948 10.2931C16.6236 11.9487 15.8388 13.4772 14.6514 14.6623C13.464 15.8475 11.934 16.6293 10.2779 16.8973C8.62177 17.1653 6.92331 16.9058 5.42272 16.1556M1.83749 12.5635C1.0902 11.0614 0.834033 9.36249 1.10521 7.70689C1.37639 6.05129 2.16119 4.52284 3.34861 3.3377C4.53604 2.15256 6.06601 1.37071 7.72213 1.10273C9.37824 0.834747 11.0767 1.09419 12.5773 1.84438" stroke="#828282" stroke-width="2" stroke-linecap="round"/>
</g>
<defs>
<clipPath id="clip0_12294_10589">
<rect width="18" height="18" fill="white"/>
</clipPath>
</defs>
</svg>
