<svg width="24" height="24" viewBox="0 0 24 24" fill="none" xmlns="http://www.w3.org/2000/svg">
  <g clip-path="url(#clip0_177_5606)">
    <path d="M23 1.00002L0.999985 23M2.59125 17.6988C1.32529 15.6086 0.791332 13.1565 1.07364 10.7292C1.35595 8.30195 2.43844 6.03779 4.15031 4.294C5.86218 2.55022 8.10596 1.42609 10.5276 1.099C12.9492 0.771917 15.4108 1.26049 17.524 2.48764M21.4087 6.30128C22.6747 8.3914 23.2086 10.8436 22.9263 13.2708C22.644 15.6981 21.5615 17.9622 19.8497 19.706C18.1378 21.4498 15.894 22.5739 13.4724 22.901C11.0507 23.2281 8.58913 22.7395 6.47598 21.5124" stroke="#828282" stroke-width="2" stroke-linecap="round" stroke-linejoin="round"/>
  </g>
  <defs>
    <clipPath id="clip0_177_5606">
      <rect width="24" height="24" fill="white"/>
    </clipPath>
  </defs>
</svg>
