<svg width="24" height="24" viewBox="0 0 24 24" fill="none" xmlns="http://www.w3.org/2000/svg">
  <path d="M15.0805 14.185C18.5338 14.185 21.3333 11.3081 21.3333 7.75918C21.3333 6.76572 21.1139 5.82494 20.7223 4.98517L16.2581 9.57278C15.8655 9.97625 15.2174 9.97625 14.8247 9.57277L13.317 8.02332C12.9393 7.63511 12.9393 7.01672 13.317 6.62853L17.833 1.98779C17.0025 1.5687 16.0681 1.33337 15.0805 1.33337C11.6271 1.33337 8.82763 4.21028 8.82763 7.75918C8.82763 8.72081 9.03317 9.63309 9.40157 10.4522L1.99077 18.8156C1.12105 19.6896 1.11319 21.1251 1.9733 22.009C2.81984 22.879 4.18995 22.8869 5.04596 22.0268L12.4989 13.6135" stroke="#CFD0EC" stroke-width="2" stroke-linecap="round"/>
</svg>
