<svg width="24" height="24" viewBox="0 0 24 24" fill="none" xmlns="http://www.w3.org/2000/svg">
  <path d="M19.4903 20.2526L18.9348 17.8851C19.2715 17.5029 19.5759 17.0924 19.8441 16.658L22.3074 16.4453L22.9997 14.353L21.1335 12.7585C21.1547 12.5084 21.1655 12.2555 21.1655 12C21.1655 11.7446 21.1547 11.4917 21.1335 11.2417L23 9.647L22.3077 7.55468L19.8441 7.34192C19.6316 6.99761 19.3962 6.66845 19.1401 6.35637L19.7795 4.00902L18.014 2.65453L15.8512 3.83057C15.2915 3.57572 14.7012 3.37472 14.0872 3.23433L13.1202 1H10.8798L9.91266 3.23451C9.40468 3.35073 8.91295 3.50835 8.44131 3.7037L6.32159 2.45427M17.6778 21.5458L15.5585 20.2966C15.0869 20.4919 14.5951 20.6495 14.0872 20.7657L13.1202 23H10.8798L9.91266 20.7655C9.29879 20.6251 8.70857 20.4241 8.14896 20.1692L5.98626 21.3452L4.2208 19.9908L4.86023 17.6433C4.60423 17.3314 4.36897 17.0023 4.15653 16.6581L1.69259 16.4454L1.00028 14.353L2.8671 12.758C2.84589 12.5081 2.83506 12.2553 2.83506 12C2.83506 11.7448 2.84589 11.492 2.8671 11.2422L1 9.64695L1.69231 7.55463L4.15658 7.34183C4.42439 6.90788 4.72855 6.49792 5.06484 6.11606L4.50908 3.74741M9.45467 11.2417C9.38319 11.482 9.34481 11.7365 9.34481 12C9.34481 13.4664 10.5336 14.6552 12 14.6552C13.4664 14.6552 14.6551 13.4664 14.6551 12C14.6551 10.5336 13.4664 9.34483 12 9.34483C11.7412 9.34483 11.4911 9.38184 11.2547 9.45085" stroke="white" stroke-width="2" stroke-linecap="round" stroke-linejoin="round"/>
</svg>
