<svg width="18" height="19" viewBox="0 0 18 19" fill="none" xmlns="http://www.w3.org/2000/svg">
<path d="M11.9011 12.6963L10 10.7952M9 6.79517C9 6.79517 9 5.5208 9 4.70425M9.72727 9.79516C9.72727 10.1968 9.40166 10.5224 9 10.5224C8.59834 10.5224 8.27273 10.1968 8.27273 9.79516C8.27273 9.3935 8.59834 9.06789 9 9.06789C9.40166 9.06789 9.72727 9.3935 9.72727 9.79516ZM17 9.79517C17 14.2134 13.4183 17.7952 9 17.7952C4.58172 17.7952 1 14.2134 1 9.79517C1 5.37689 4.58172 1.79517 9 1.79517C13.4183 1.79517 17 5.37689 17 9.79517Z" stroke="#2BCABC" stroke-width="2" stroke-linecap="round"/>
</svg>
