<svg width="24" height="24" viewBox="0 0 24 24" fill="none" xmlns="http://www.w3.org/2000/svg">
  <path d="M6.79672 20.0326L6.49998 23L4.31282 23C3.12217 23 2.19521 21.9662 2.32465 20.7826L2.71518 17.2115C2.97869 14.9121 4.59004 13.0079 6.79672 12.1118L6.95914 12.2121C8.38939 13.3727 10.1763 14.0042 12.0182 14C13.8601 13.9958 15.6441 13.3561 17.0691 12.189L17.2855 12.1118C19.4921 13.008 21.1034 14.9121 21.3669 17.2115L21.7575 20.7826C21.8869 21.9662 20.96 23 19.7693 23H17.5M6.79672 20.0326L6.99998 18M6.79672 20.0326H2.54672M17.5 23L17.2032 20.0326M17.5 23H9M17.2032 20.0326L17 18M17.2032 20.0326H21.4532M17 6C17 8.76142 14.7614 11 12 11C9.23855 11 6.99998 8.76142 6.99998 6C6.99998 3.23858 9.23855 1 12 1C14.7614 1 17 3.23858 17 6Z" stroke="#CFD0EC" stroke-width="2" stroke-linecap="round" stroke-linejoin="round"/>
</svg>
