<svg width="65" height="60" viewBox="0 0 65 60" fill="none" xmlns="http://www.w3.org/2000/svg">
  <g filter="url(#filter0_d_76_375)">
    <rect x="13" y="13" width="34" height="34" rx="17" fill="#00A799"/>
  </g>
  <path d="M30.2344 36.2188C29.2031 36.2188 28.2812 35.9948 27.4688 35.5469C26.6667 35.099 26.0365 34.4844 25.5781 33.7031C25.3281 33.2865 25.1354 32.8281 25 32.3281C24.8646 31.8385 24.7969 31.3125 24.7969 30.75C24.7969 27.2188 24.7969 24.8646 24.7969 23.6875C25.9219 23.6875 26.6667 23.6875 27.0312 23.6875C27.0312 26.7917 27.0312 29.1198 27.0312 30.6719C27.0312 31.6927 27.3333 32.5365 27.9375 33.2031C28.5312 33.8594 29.2969 34.1875 30.2344 34.1875C31.1719 34.1875 31.9375 33.8594 32.5312 33.2031C33.1354 32.5365 33.4375 31.6927 33.4375 30.6719C33.4375 27.1823 33.4375 24.8542 33.4375 23.6875C34.5521 23.6875 35.2917 23.6875 35.6562 23.6875C35.6562 26.8229 35.6562 29.1771 35.6562 30.75C35.6562 31.7917 35.4323 32.7188 34.9844 33.5312C34.5469 34.3438 33.9427 34.9792 33.1719 35.4375C32.7552 35.6875 32.3021 35.8802 31.8125 36.0156C31.3125 36.151 30.7865 36.2188 30.2344 36.2188Z" fill="white"/>
  <defs>
    <filter id="filter0_d_76_375" x="-5" y="0" width="70" height="70" filterUnits="userSpaceOnUse" color-interpolation-filters="sRGB">
      <feFlood flood-opacity="0" result="BackgroundImageFix"/>
      <feColorMatrix in="SourceAlpha" type="matrix" values="0 0 0 0 0 0 0 0 0 0 0 0 0 0 0 0 0 0 127 0" result="hardAlpha"/>
      <feOffset dy="5"/>
      <feGaussianBlur stdDeviation="9"/>
      <feColorMatrix type="matrix" values="0 0 0 0 0 0 0 0 0 0 0 0 0 0 0 0 0 0 0.2 0"/>
      <feBlend mode="normal" in2="BackgroundImageFix" result="effect1_dropShadow_76_375"/>
      <feBlend mode="normal" in="SourceGraphic" in2="effect1_dropShadow_76_375" result="shape"/>
    </filter>
  </defs>
</svg>
