<svg width="24" height="24" viewBox="0 0 24 24" fill="none" xmlns="http://www.w3.org/2000/svg">
  <path d="M4 8L5.33382 4.66545C5.73617 3.65958 6.71039 3 7.79375 3H16.2063C17.2896 3 18.2638 3.65958 18.6662 4.66545L20 8M23 10L22 11M1 10L2 11M1 13.8503V15.5981C1 17.1293 2.15496 18.4192 3.67947 18.562C9.85911 19.1405 14.2029 19.1498 20.3289 18.567C21.8499 18.4223 23 17.1338 23 15.6059V13.8595C23 13.146 22.7799 12.4498 22.3697 11.8659C21.5738 10.7331 20.1809 10.1901 18.8177 10.4317C13.6798 11.3421 10.1036 11.3557 5.187 10.4533C3.82258 10.2029 2.42247 10.7383 1.62502 11.8734C1.21826 12.4524 1 13.1428 1 13.8503ZM19 20V19.3489L22 19V20.5C22 21 22 21 21.5 21H20C19 21 19 21 19 20ZM5 20V19.3489L2 19V20.5C2 21 2 21 2.5 21H4C5 21 5 21 5 20ZM19 15V14.5C19 14.2239 19.2239 14 19.5 14C19.7761 14 20 14.2239 20 14.5C20 14.7761 19.7761 15 19.5 15H19ZM5 15V14.5C5 14.2239 4.77614 14 4.5 14C4.22386 14 4 14.2239 4 14.5C4 14.7761 4.22386 15 4.5 15H5Z" stroke="#CFD0EC" stroke-width="2" stroke-linecap="round"/>
</svg>
