<svg width="24" height="24" viewBox="0 0 24 24" fill="none" xmlns="http://www.w3.org/2000/svg">
  <path d="M23 8H24C24 7.44772 23.5523 7 23 7V8ZM20 8H19C19 8.55228 19.4477 9 20 9V8ZM20 6H21C21 5.44772 20.5523 5 20 5V6ZM19 1C19 0.447715 18.5523 0 18 0C17.4477 0 17 0.447715 17 1H19ZM16 6V5C15.4477 5 15 5.44772 15 6H16ZM16 8V9C16.5523 9 17 8.55228 17 8H16ZM15.5 7C14.9477 7 14.5 7.44772 14.5 8C14.5 8.55228 14.9477 9 15.5 9V7ZM1 7.5L0.523717 6.62071C0.201023 6.7955 0 7.13301 0 7.5H1ZM13 1H14C14 0.647585 13.8145 0.321187 13.5117 0.140848C13.2089 -0.0394901 12.8336 -0.0471416 12.5237 0.120708L13 1ZM4 22V21C3.44772 21 3 21.4477 3 22H4ZM10 22H11C11 21.4477 10.5523 21 10 21V22ZM22 8V24H24V8H22ZM23 7H20V9H23V7ZM21 8V6H19V8H21ZM20 5H18V7H20V5ZM19 6V1H17V6H19ZM18 5H16V7H18V5ZM15 6V8H17V6H15ZM16 7H15.5V9H16V7ZM11 13H3V15H11V13ZM11 17H3V19H11V17ZM11 9H3V11H11V9ZM2 24V7.5H0V24H2ZM1.47628 8.37929L13.4763 1.87929L12.5237 0.120708L0.523717 6.62071L1.47628 8.37929ZM12 1V24H14V1H12ZM5 24V22H3V24H5ZM9 22V24H11V22H9ZM4 23H7V21H4V23ZM7 23H10V21H7V23ZM6 22V24H8V22H6ZM21 11H19V13H21V11ZM21 15H19V17H21V15ZM21 19H19V21H21V19ZM20 22H16V24H20V22ZM17 11H15V13H17V11ZM17 15H15V17H17V15ZM17 19H15V21H17V19Z" fill="#CFD0EC"/>
</svg>
